<svg xmlns:xlink="http://www.w3.org/1999/xlink" xmlns="http://www.w3.org/2000/svg" width="129" height="33" viewBox="0 0 129 33" fill="none">
  <path fill-rule="evenodd" clip-rule="evenodd" d="M28.7772 24.0193C33.8894 15.0059 32.1788 6.09816 24.8322 2.12498C16.7148 -2.26621 6.13238 0.122983 1.57072 9.52795C-1.57122 16.0036 -0.144539 27.2577 7.16617 31.2925C14.4757 35.3251 24.2851 31.9415 28.7772 24.0193ZM26.295 14.4417C26.5442 12.6278 26.0968 10.4168 24.6585 8.95934L24.6377 8.93954C21.8747 5.97725 18.0386 5.79135 15.6094 5.84855C12.9241 5.91345 10.9956 6.75495 9.41824 7.53595C8.0414 8.21684 6.80016 9.38834 6.29601 9.97024C5.97498 10.3409 5.42911 11.1065 5.72233 11.7929C5.96339 12.3627 6.86854 12.3253 7.20927 12.0822C7.38869 11.9538 7.57393 11.79 7.77764 11.6099C7.95949 11.4492 8.15605 11.2754 8.37634 11.1021C10.4497 9.47414 12.2878 8.44894 16.5702 8.44894C20.8525 8.44894 23.1728 10.9833 23.1728 13.246C23.1728 15.5087 22.0462 17.0454 19.9172 18.0486C18.8637 18.5447 17.7372 18.9286 16.3187 18.9803C16.4218 16.7869 16.4751 14.7112 16.4751 14.7112C16.4801 14.4513 16.4919 14.1993 16.5031 13.9587C16.5602 12.7386 16.6035 11.813 15.6731 11.6356C14.5617 11.4233 12.5138 11.6323 12.4756 12.8368C12.4257 12.6575 12.6865 22.7071 12.734 22.9051L12.7526 23.1361C12.7746 23.3913 12.8696 23.6157 13.0377 23.795C13.2057 23.9721 13.4781 24.0821 13.7226 24.1085C13.7609 24.1118 13.7991 24.1151 13.8374 24.1151C14.0703 24.1151 14.3983 24.0755 14.7286 23.9875C15.1458 23.8742 15.5654 23.6817 15.8076 23.3814C15.9304 23.2296 16.0313 23.0822 16.0834 22.8105C16.1193 22.6257 16.19 21.4586 16.2086 21.1198C18.4604 21.1 20.7494 20.6996 22.4913 19.692C24.6875 18.4237 26.0087 16.5097 26.295 14.4417ZM14.6428 25.2723C14.8966 25.3196 15.147 25.4329 15.3707 25.5979H15.3707C15.7763 25.8971 16.0197 26.3646 16.0243 26.8431C16.0278 27.2556 15.8458 27.6241 15.5109 27.8848C15.2223 28.1048 14.8515 28.2236 14.4389 28.2236H14.4377C14.2488 28.2236 14.0599 28.1972 13.8756 28.1488C13.5557 28.0619 13.2984 27.9178 13.1304 27.7308C12.9797 27.5647 12.8789 27.3414 12.8349 27.0829C12.7676 26.6803 12.8731 26.2634 13.1281 25.9158C13.434 25.4967 13.9034 25.247 14.3809 25.247C14.4678 25.247 14.5571 25.2558 14.6428 25.2723Z" fill="#FEFEFE"/>
  <path d="M48.6132 13.5172C48.6132 15.0119 48.1266 16.1573 47.1532 16.9536C46.1798 17.7499 44.7944 18.148 42.9969 18.148H41.5174V23.5034H39.1911V9.18988H43.289C45.067 9.18988 46.3972 9.55539 47.2797 10.2864C48.1687 11.0174 48.6132 12.0944 48.6132 13.5172ZM41.5174 16.1802H42.7536C43.9476 16.1802 44.8236 15.9713 45.3817 15.5536C45.9397 15.1359 46.2188 14.4832 46.2188 13.5955C46.2188 12.7731 45.9689 12.1596 45.4693 11.755C44.9696 11.3503 44.1909 11.1479 43.1332 11.1479H41.5174V16.1802Z" fill="#FEFEFE"/>
  <path d="M55.9135 23.6992C54.2393 23.6992 52.9285 23.2097 51.9811 22.2306C51.0402 21.2451 50.5697 19.8907 50.5697 18.1676C50.5697 16.3988 51.0077 15.0086 51.8837 13.9969C52.7598 12.9853 53.9635 12.4794 55.4949 12.4794C56.916 12.4794 58.0386 12.9135 58.8627 13.7816C59.6869 14.6496 60.0989 15.8441 60.0989 17.3648V18.6082H52.9252C52.9577 19.659 53.24 20.4684 53.7721 21.0362C54.3042 21.5975 55.0537 21.8782 56.0205 21.8782C56.6565 21.8782 57.247 21.8194 57.792 21.7019C58.3436 21.5779 58.9341 21.3756 59.5636 21.0949V22.9649C59.0055 23.2325 58.441 23.4218 57.8699 23.5327C57.2989 23.6437 56.6467 23.6992 55.9135 23.6992ZM55.4949 14.2221C54.7681 14.2221 54.1841 14.4538 53.7429 14.9172C53.3081 15.3806 53.0485 16.0562 52.9642 16.9438H57.8504C57.8375 16.0497 57.6233 15.3741 57.208 14.9172C56.7927 14.4538 56.2217 14.2221 55.4949 14.2221Z" fill="#FEFEFE"/>
  <path d="M69.4335 23.5034L68.976 21.9957H68.8981C68.379 22.6549 67.8566 23.1052 67.331 23.3467C66.8054 23.5817 66.1305 23.6992 65.3064 23.6992C64.2487 23.6992 63.4213 23.412 62.8243 22.8376C62.2338 22.2633 61.9386 21.4507 61.9386 20.3998C61.9386 19.2837 62.3506 18.4418 63.1747 17.8739C63.9989 17.3061 65.2545 16.9961 66.9416 16.9438L68.8008 16.8851V16.3075C68.8008 15.6156 68.6385 15.1 68.3141 14.7606C67.9961 14.4147 67.4997 14.2417 66.8248 14.2417C66.2733 14.2417 65.7444 14.3233 65.2383 14.4865C64.7321 14.6496 64.2454 14.8422 63.7782 15.0641L63.0385 13.4193C63.6225 13.1125 64.2617 12.8808 64.956 12.7242C65.6503 12.561 66.3057 12.4794 66.9222 12.4794C68.2914 12.4794 69.3231 12.7797 70.0175 13.3801C70.7183 13.9806 71.0687 14.9238 71.0687 16.2096V23.5034H69.4335ZM66.0267 21.9369C66.8573 21.9369 67.5224 21.7052 68.0221 21.2418C68.5282 20.7719 68.7813 20.1159 68.7813 19.2739V18.3341L67.3991 18.3928C66.3219 18.432 65.5368 18.6147 65.0436 18.9411C64.5569 19.2609 64.3136 19.7537 64.3136 20.4194C64.3136 20.9024 64.4563 21.2777 64.7419 21.5453C65.0274 21.8064 65.4557 21.9369 66.0267 21.9369Z" fill="#FEFEFE"/>
  <path d="M79.3066 12.4794C79.7673 12.4794 80.1469 12.5121 80.4454 12.5773L80.2215 14.7214C79.8971 14.6431 79.5597 14.6039 79.2093 14.6039C78.2943 14.6039 77.5513 14.9042 76.9803 15.5047C76.4157 16.1051 76.1334 16.8851 76.1334 17.8445V23.5034H73.846V12.6752H75.637L75.9388 14.5844H76.0556C76.4125 13.9382 76.8764 13.4258 77.4475 13.0473C78.025 12.6687 78.6447 12.4794 79.3066 12.4794Z" fill="#FEFEFE"/>
  <path d="M90.3056 20.4194C90.3056 21.4768 89.9227 22.2894 89.157 22.8572C88.3913 23.4185 87.2946 23.6992 85.8671 23.6992C84.433 23.6992 83.2812 23.4805 82.4116 23.0432V21.0558C83.677 21.6432 84.8548 21.9369 85.9449 21.9369C87.3531 21.9369 88.0571 21.5094 88.0571 20.6544C88.0571 20.3802 87.9792 20.1518 87.8235 19.9691C87.6678 19.7863 87.4114 19.597 87.0546 19.4012C86.6977 19.2054 86.2012 18.9835 85.5653 18.7355C84.3259 18.2525 83.4856 17.7695 83.0443 17.2865C82.6095 16.8035 82.3921 16.1769 82.3921 15.4068C82.3921 14.4799 82.762 13.762 83.5018 13.2529C84.248 12.7372 85.2603 12.4794 86.5387 12.4794C87.804 12.4794 89.0013 12.7372 90.1304 13.2529L89.3906 14.9858C88.2291 14.5028 87.2525 14.2613 86.4608 14.2613C85.2538 14.2613 84.6503 14.6072 84.6503 15.2991C84.6503 15.6385 84.8061 15.9256 85.1176 16.1606C85.4355 16.3956 86.1234 16.7187 87.1811 17.1299C88.0701 17.4758 88.7158 17.7923 89.1181 18.0795C89.5204 18.3667 89.8189 18.6996 90.0136 19.0781C90.2082 19.4502 90.3056 19.8973 90.3056 20.4194Z" fill="#FEFEFE"/>
  <path d="M102.544 18.0697C102.544 19.8385 102.093 21.219 101.191 22.211C100.289 23.2031 99.0334 23.6992 97.4241 23.6992C96.4183 23.6992 95.5293 23.4707 94.7571 23.0139C93.9849 22.557 93.3911 21.901 92.9758 21.046C92.5605 20.191 92.3529 19.1989 92.3529 18.0697C92.3529 16.314 92.8006 14.9433 93.6961 13.9578C94.5916 12.9722 95.8537 12.4794 97.4825 12.4794C99.0399 12.4794 100.273 12.9853 101.181 13.9969C102.09 15.0021 102.544 16.3597 102.544 18.0697ZM94.7084 18.0697C94.7084 20.5695 95.6266 21.8194 97.463 21.8194C99.28 21.8194 100.188 20.5695 100.188 18.0697C100.188 15.596 99.2735 14.3592 97.4436 14.3592C96.4832 14.3592 95.7856 14.679 95.3508 15.3186C94.9226 15.9583 94.7084 16.8753 94.7084 18.0697Z" fill="#FEFEFE"/>
  <path d="M114.237 23.5034H111.94V16.8459C111.94 16.0105 111.771 15.3872 111.434 14.976C111.103 14.5648 110.574 14.3592 109.847 14.3592C108.881 14.3592 108.173 14.6464 107.726 15.2207C107.278 15.7951 107.054 16.7578 107.054 18.1089V23.5034H104.766V12.6752H106.557L106.879 14.0948H106.995C107.32 13.5792 107.781 13.1811 108.378 12.9004C108.975 12.6198 109.637 12.4794 110.363 12.4794C112.946 12.4794 114.237 13.8011 114.237 16.4445V23.5034Z" fill="#FEFEFE"/>
</svg>
